<svg width="1300" height="447" viewBox="0 0 1300 447" fill="none" xmlns="http://www.w3.org/2000/svg">
<path d="M8.23988 444.954H0L55.1438 1.26758H76.0605L209.166 411.36L341.638 1.26758H362.555V444.954H341.638L321.355 90.0048L206.631 444.954H166.699L50.707 94.4416L8.23988 444.954Z" fill="#30324D"/>
<path d="M647.782 1.26758V7.60594H434.179V197.757H619.259V204.096H434.179V438.615H647.782V444.954H381.57V1.26758H647.782Z" fill="#30324D"/>
<path d="M666.797 7.60497V1.2666H967.87V7.60497L718.138 438.616H908.923C921.177 438.616 932.375 436.503 942.516 432.278C952.657 428.052 959.418 421.925 962.799 413.897L967.87 416.432C967.024 418.545 965.545 421.291 963.433 424.672C961.742 427.63 956.038 431.855 946.319 437.349C936.6 442.419 924.769 444.955 910.824 444.955H666.797V438.616L915.261 7.60497H666.797Z" fill="#30324D"/>
<path d="M1291.76 0H1300V253.535C1300 319.876 1286.9 368.682 1260.7 399.951C1234.5 430.798 1200.28 446.221 1158.02 446.221C1131.4 446.221 1108.79 443.897 1090.2 439.249C1071.61 434.178 1054.07 425.093 1037.59 411.994C1003.79 385.796 986.885 332.976 986.885 253.535V0H1039.49V252.901C1039.49 329.807 1051.11 381.147 1074.35 406.923C1086.19 419.6 1098.44 428.263 1111.12 432.911C1124.22 437.559 1139.85 439.883 1158.02 439.883C1198.59 439.883 1230.91 425.093 1255 395.514C1279.51 365.513 1291.76 317.975 1291.76 252.901V0Z" fill="#30324D"/>
</svg>
